<svg width="317" height="160" viewBox="0 0 317 160" fill="none" xmlns="http://www.w3.org/2000/svg">
<path d="M87.9216 47.7725C88.7895 48.1583 89.475 48.6297 89.947 49.0059C90.217 49.2212 90.4406 49.4238 90.613 49.5919L90.8523 49.837L90.988 49.9903C90.9945 49.9978 91.0063 50.011 91.0193 50.0264L91.1247 50.1573L91.2898 50.3907C91.3274 50.4478 91.3964 50.5564 91.4724 50.6973C91.4743 50.7008 91.5009 50.7485 91.53 50.8067C91.5604 50.8676 91.5962 50.9433 91.6335 51.0313C91.6842 51.1508 91.7397 51.3008 91.7907 51.4757L91.9861 51.671L91.9665 52.2208L91.9675 52.2247L91.9558 52.544L91.9499 52.6983C91.9499 52.7042 91.95 52.7108 91.9499 52.7179C91.9498 52.7254 91.9492 52.7343 91.9489 52.7442C91.9487 52.7541 91.9485 52.766 91.948 52.7794L91.906 53.752L91.904 53.753L91.8415 55.169H91.7986C91.7499 56.2577 91.7631 57.4819 92.0183 58.8917C92.3408 60.6731 92.4992 62.8216 92.5476 65.0743C94.9585 64.7187 97.7246 64.4069 100.166 64.5802C102.728 64.7622 104.762 65.5612 106.243 66.2813C106.942 66.621 107.593 66.9813 108.021 67.2159C108.517 67.4875 108.758 67.6146 108.947 67.7003C112.475 69.3028 113.967 72.4784 114.623 74.2589C115.332 76.185 115.713 78.3241 115.979 79.9083C116.822 84.925 114.619 89.2615 113.127 91.8077C112.322 93.1812 111.412 94.5257 110.752 95.5245C110.011 96.6448 109.564 97.3599 109.289 97.9093C107.637 101.21 106.857 104.379 105.952 110.845C105.785 112.034 105.89 112.819 106.099 113.475C106.171 113.7 106.263 113.932 106.38 114.182C106.573 114.096 106.793 113.996 107.051 113.884C108.407 113.29 110.2 112.549 112.847 111.598C118.13 109.699 126.788 106.986 138.716 104.6C142.527 103.837 146.234 106.309 146.997 110.12C147.759 113.932 145.287 117.639 141.476 118.401C130.282 120.641 122.293 123.16 117.608 124.844C116.037 125.409 114.845 125.877 113.903 126.267C114.123 126.77 114.333 127.289 114.532 127.827C114.786 128.514 115.086 129.046 115.537 129.788C115.762 130.158 117.042 132.043 117.456 134.201C118.28 138.508 115.239 141.016 114.544 141.534C113.529 142.289 112.503 142.673 111.998 142.847C110.855 143.241 109.654 143.456 108.824 143.569C105.298 144.052 102.115 143.69 99.5505 143.344C96.8115 142.974 94.8266 142.639 92.5036 142.614C87.8794 142.564 84.1318 140.403 81.8718 139.098C80.9997 138.594 80.2656 138.017 79.6482 137.396C79.281 140.532 78.1173 143.992 75.24 147.088C75.2535 147.073 75.2377 147.09 75.1511 147.193C75.0865 147.271 74.9751 147.405 74.864 147.537C74.6271 147.819 74.3104 148.19 73.9294 148.609C73.1734 149.441 72.1375 150.494 70.9167 151.457C68.2533 153.558 64.6646 155.428 59.6228 156.589C52.6105 158.204 46.4183 159.262 41.6081 159.651C39.2277 159.844 36.945 159.893 34.9675 159.687C33.9784 159.583 32.8639 159.397 31.7634 159.033C30.7353 158.693 29.1784 158.024 27.8445 156.623C26.9416 155.675 26.3326 154.598 25.9685 153.899C25.5466 153.09 25.1506 152.184 24.782 151.242C24.0416 149.351 23.2799 146.98 22.5466 144.247C21.6239 140.809 20.7139 136.671 19.9275 131.99C19.3287 131.911 18.733 131.833 18.1364 131.753C15.0258 131.334 11.9131 130.869 8.68332 130.072C4.65769 129.08 2.47496 126.209 1.42453 123.746C0.51375 121.611 0.241071 119.309 0.0924981 118.12C-0.555767 112.931 2.34365 109.146 4.41574 107.131C6.59396 105.013 9.16636 103.531 10.7693 102.69C12.7513 101.649 15.0165 101.185 16.6101 100.95C18.0416 100.739 19.4888 100.638 20.738 100.624H20.7605L21.238 100.623H21.2937L21.5222 100.627L21.5427 100.628L22.0652 100.639L22.3288 100.644L22.7683 100.652L23.4226 100.903L23.4304 100.906L23.9265 101.099L24.2722 101.23C22.3828 98.9505 20.7952 96.4782 19.4753 94.1134C16.5342 88.8435 14.4605 83.2669 13.1736 79.4093C12.5138 77.4315 11.0266 73.5466 11.4704 69.0665C11.9809 63.9194 16.0165 61.1616 18.3571 59.9132C21.0369 58.484 24.2756 57.5292 27.2839 56.8409L28.4343 56.588C34.2457 55.3598 40.8471 54.6773 45.1394 54.172C47.8853 53.8488 51.007 54.0757 53.7693 55.963C56.3835 57.7493 57.5178 60.2793 58.0554 61.5831C63.3762 74.4887 57.4995 85.4706 55.6823 89.6671C54.4576 92.4956 52.5076 94.7228 50.7019 96.4796C49.7444 97.4111 48.6765 98.3459 47.5993 99.2598C52.979 101.304 59.2361 103.416 63.448 104.552C67.2014 105.564 69.421 109.428 68.4099 113.18C67.3976 116.932 63.5343 119.156 59.781 118.144C56.1634 117.168 51.2861 115.58 46.5398 113.874C46.5002 114.14 46.4471 114.406 46.3757 114.672C45.3666 118.424 41.5068 120.651 37.7527 119.643C34.7148 118.826 33.2894 118.426 32.3396 118.173C32.3684 118.575 32.4077 119.036 32.4597 119.569C37.8347 120.216 43.8935 119.978 54.5779 119.752C58.0173 119.679 62.3868 119.68 66.2312 120.163L66.9929 120.267L67.7448 120.384C69.5316 120.684 71.5166 121.167 73.3054 122.022C74.4868 122.586 76.1772 123.612 77.4714 125.316C77.7448 124.45 78.0379 123.724 78.2566 123.206C79.6917 119.806 82.6262 118.119 84.2341 117.348C86.0362 116.483 87.9459 115.953 89.1374 115.634C90.1236 115.37 91.0979 115.19 92.0437 115.066C91.7384 113.194 91.6965 111.15 92.0124 108.893C92.9743 102.021 94.0004 97.0069 96.7019 91.6085C97.4058 90.2021 98.3017 88.8297 99.0075 87.7618C99.7923 86.5745 100.42 85.6454 100.981 84.6886C101.567 83.689 101.858 83.0133 101.993 82.5841C102.064 82.3583 102.081 82.2317 102.086 82.1846C101.898 81.0728 101.743 80.2971 101.601 79.7481C101.476 79.6803 101.359 79.6177 101.253 79.5596C100.729 79.2728 100.411 79.0977 100.088 78.9405C99.5243 78.6667 99.3002 78.6325 99.1687 78.6231L99.1208 78.6192C98.3299 78.5686 97.2993 78.6376 95.8591 78.8292C94.5404 79.0047 93.2499 79.2204 91.5954 79.4737C91.3927 80.7679 91.1574 82.0237 90.8835 83.1983C89.7886 87.8925 86.4404 95.219 84.8855 98.3292C83.2011 101.698 79.1802 103.125 75.7683 101.63L75.7038 101.601L75.4929 101.501L75.4675 101.489L75.4421 101.477C71.9736 99.7424 70.5617 95.5293 72.282 92.0567L72.9157 90.755C74.5046 87.4169 76.5857 82.5263 77.1745 80.002C77.2548 79.6577 77.3299 79.2911 77.405 78.9063C75.7086 78.1981 73.9281 76.9759 72.4294 75.7159C70.7838 74.3323 68.9687 72.4771 67.49 70.2452C66.0331 68.0461 64.6437 65.0853 64.489 61.6104C64.3241 57.9027 65.6017 54.2838 68.363 51.213C70.9157 48.3742 74.5677 47.4057 76.4323 47.0479C78.8582 46.5827 81.0999 46.8133 82.0359 46.8829C82.2662 46.9 82.4276 46.9081 82.5417 46.9141L90.7126 44.9825L87.9216 47.7725ZM50.9489 60.0919C49.5587 59.1419 47.816 58.8905 45.7234 59.1368C41.3014 59.6574 34.9899 60.3134 29.488 61.4757L28.3991 61.7159C25.5384 62.3705 22.8073 63.2072 20.7107 64.3253C18.6987 65.3984 16.6962 67.0469 16.447 69.5606C16.1275 72.7869 17.1803 75.6227 17.9157 77.8272C19.1609 81.5598 21.1196 86.8003 23.8405 91.6759C25.4625 94.5819 27.43 97.4944 29.778 99.877L31.406 101.528L29.8816 103.275C29.1504 104.113 28.4243 104.998 27.7097 105.932L26.6159 107.361L24.9128 106.777C24.3402 106.581 23.7452 106.37 23.1306 106.143L23.1169 106.137L22.1404 105.769L22.1296 105.765L22.1179 105.761L21.7898 105.634L21.4362 105.627L21.2116 105.623H20.7917L20.7927 105.624C19.7558 105.635 18.5344 105.721 17.3386 105.898C15.9194 106.107 14.3213 106.47 13.0935 107.115C11.6317 107.883 9.56349 109.1 7.90207 110.715C6.26286 112.309 4.6941 114.621 5.05344 117.499C5.21077 118.758 5.42716 120.386 6.02414 121.785C6.66488 123.287 7.82847 124.711 9.88058 125.217C12.836 125.946 15.7276 126.384 18.8044 126.798L24.279 127.525L24.5671 129.371C25.3917 134.654 26.3847 139.254 27.3767 142.95L27.6394 143.909C28.2528 146.099 28.8652 147.956 29.4382 149.42C29.7651 150.255 30.0881 150.986 30.4021 151.589C30.6982 152.157 31.0496 152.738 31.4646 153.174C32.01 153.747 32.7079 154.078 33.3327 154.285C33.9794 154.499 34.7138 154.633 35.487 154.714C37.0334 154.875 38.9737 154.848 41.2038 154.667C45.6822 154.305 51.616 153.301 58.4997 151.716C62.8719 150.709 65.775 149.144 67.8191 147.531C69.7679 145.994 71.0432 144.259 71.5769 143.685C75.7153 139.231 74.9053 133.62 74.2732 130.134C73.9381 128.287 72.5058 127.18 71.1511 126.533C69.7716 125.875 68.0448 125.473 66.2702 125.214C62.6942 124.692 58.3255 124.673 54.6833 124.75C43.0231 124.997 36.2429 125.306 29.7732 124.24L27.907 123.933L27.6989 122.09C27.6971 122.076 27.6952 122.059 27.6931 122.04L27.5642 120.864C27.2889 118.262 27.1961 116.612 27.3601 115.256C27.3885 115.021 27.4258 114.787 27.4753 114.549L27.9948 112.052L30.4812 112.622C30.8013 112.696 31.1074 112.763 31.3991 112.825L32.2321 112.994L32.2751 113.002L32.3191 113.012C33.5466 113.293 34.7746 113.665 39.0505 114.815C40.1368 115.106 41.2552 114.461 41.5476 113.374C41.727 112.706 41.5543 112.025 41.1325 111.526L43.9353 107.577C49.7849 109.817 56.5462 112.092 61.0837 113.316C62.1702 113.608 63.2885 112.965 63.5818 111.878C63.8745 110.791 63.231 109.673 62.1452 109.38C56.6162 107.889 47.9142 104.855 41.8181 102.358L37.988 100.79L41.1589 98.13C41.3172 97.9972 41.4826 97.8583 41.6462 97.7218C43.6476 96.0515 45.6067 94.4608 47.2155 92.8956C48.8296 91.3252 50.2478 89.636 51.0945 87.6807C53.0831 83.0882 57.8198 74.1314 53.4323 63.4893C52.9751 62.3802 52.3013 61.0161 50.9489 60.0919ZM31.7966 128.631C38.013 129.323 44.8132 129.038 54.7702 128.827C58.3914 128.75 62.4677 128.78 65.6823 129.249C67.0166 129.444 68.0674 129.697 68.8376 129.982L70.2195 130.491L70.4431 131.947C70.9283 135.106 70.9795 138.34 68.5915 140.91C67.6472 141.926 66.9186 143.049 65.2946 144.33C63.7549 145.545 61.4102 146.863 57.5847 147.744C50.8065 149.305 45.0846 150.263 40.8767 150.604C38.7663 150.774 37.1044 150.784 35.9109 150.659C35.858 150.654 35.811 150.648 35.7849 150.645C35.7784 150.644 35.7721 150.643 35.7673 150.643C35.7619 150.642 35.7572 150.641 35.7536 150.641C35.7468 150.64 35.7451 150.64 35.7458 150.64L34.363 150.475L33.7761 149.212C33.6141 148.864 33.431 148.439 33.2331 147.934C32.6482 146.439 31.9868 144.404 31.3132 141.894C30.5375 139.003 29.7552 135.515 29.0583 131.548L28.4802 128.262L31.7966 128.631ZM64.9597 134.195C62.189 133.791 58.4726 133.749 54.8757 133.825C46.7374 133.998 40.3392 134.238 34.5847 133.883C35.09 136.399 35.6212 138.651 36.1433 140.597L36.3816 141.468C36.8756 143.232 37.3434 144.662 37.7487 145.742C38.4617 145.743 39.3644 145.709 40.4724 145.619C44.3487 145.305 49.8124 144.403 56.4616 142.871C59.6161 142.145 61.2755 141.131 62.197 140.404C63.4545 139.412 63.3024 139.257 64.9294 137.506C65.4894 136.903 65.8 136.079 65.6843 134.316C65.4666 134.275 65.2252 134.234 64.9597 134.195ZM81.6648 51.8692C80.6056 51.7904 79.0369 51.6391 77.3737 51.9581C75.7771 52.2645 73.501 52.9784 72.0818 54.5567C70.1569 56.6974 69.3792 59.0492 69.4831 61.3878C69.5842 63.6592 70.5065 65.7454 71.6579 67.4835C72.8151 69.2301 74.2779 70.7393 75.6462 71.8897C76.986 73.0162 78.3697 73.912 79.4245 74.3321C79.8687 74.509 80.3347 74.6536 80.8191 74.7706L83.0388 75.3057L82.7058 77.5655C82.5174 78.8418 82.2968 80.0514 82.0437 81.1368C81.3153 84.26 78.9957 89.6178 77.4206 92.9249L77.4167 92.9346L77.4118 92.9444L76.778 94.2462L76.7663 94.2696C76.2641 95.2745 76.6702 96.496 77.6736 97.0011L77.7859 97.0538C78.7697 97.4779 79.9275 97.0635 80.4128 96.0928C81.9668 92.9845 85.0666 86.1264 86.0144 82.0636C86.3715 80.532 86.6689 78.7901 86.906 76.9542L87.1511 75.0557L89.0486 74.797C89.3794 74.7519 89.7047 74.7062 90.0222 74.6593C91.8856 74.3839 93.6578 74.0772 95.1989 73.8721C96.7567 73.6649 98.206 73.5405 99.5222 73.6339L101.845 73.7989V74.2462C101.988 74.3088 102.132 74.3747 102.275 74.4444C102.731 74.6661 103.166 74.9059 103.657 75.1749C103.827 75.2678 104.004 75.3656 104.189 75.4639L104.763 75.7589L105.576 76.1612L105.942 76.9913C105.986 77.0907 106.043 77.2261 106.105 77.3946C106.39 78.1695 106.613 79.1285 106.822 80.2452L107.028 81.4141C107.303 83.0576 106.623 84.9528 105.296 87.2178C104.648 88.3231 103.918 89.4017 103.179 90.5196C102.464 91.6014 101.725 92.7428 101.173 93.8468C98.8436 98.5009 97.9051 102.86 96.9636 109.586C96.5756 112.358 96.886 114.595 97.5456 116.517L98.6491 119.73L95.2536 119.827C93.6508 119.873 92.0247 120.037 90.4304 120.464C89.2549 120.779 87.7418 121.21 86.3962 121.856C85.1078 122.474 83.5712 123.474 82.864 125.149C82.4228 126.195 81.8485 127.729 81.7234 129.313L81.7048 129.63C81.6334 131.44 82.2123 133.519 84.3737 134.768C86.6782 136.099 89.3899 137.58 92.5583 137.614C95.2767 137.644 97.6757 138.045 100.22 138.389C102.716 138.726 105.332 139.001 108.146 138.616C108.822 138.524 109.663 138.363 110.369 138.12C110.7 138.006 111.156 137.823 111.557 137.524C111.679 137.434 112.024 137.15 112.282 136.719C112.513 136.334 112.678 135.837 112.546 135.143L112.502 134.941C112.255 133.936 111.633 132.991 111.263 132.382C110.779 131.584 110.27 130.716 109.842 129.56C109.398 128.356 108.874 127.243 108.312 126.205L107.03 123.835L109.49 122.734C109.874 122.562 110.291 122.374 110.69 122.199C111.868 121.684 113.47 121.018 115.917 120.139C120.814 118.379 129.041 115.791 140.496 113.499C141.6 113.278 142.315 112.204 142.094 111.101C141.873 109.997 140.799 109.281 139.696 109.502C128.029 111.837 119.609 114.481 114.539 116.303C112.001 117.215 110.312 117.914 109.054 118.464C108.007 118.922 107.336 119.238 106.803 119.461L106.525 119.577L106.226 119.624C106.015 119.657 105.802 119.688 105.589 119.715L104.058 119.908L103.199 118.627C102.411 117.453 101.749 116.291 101.336 114.994C100.876 113.553 100.741 112.005 101.001 110.151C101.926 103.543 102.793 99.718 104.818 95.671C105.246 94.8157 105.854 93.8646 106.58 92.7667C107.283 91.7031 108.094 90.5043 108.812 89.2784C110.214 86.8875 111.579 83.8958 111.048 80.7364C110.778 79.1318 110.46 77.4204 109.931 75.9854C109.417 74.5886 108.546 73.0105 106.879 72.253C106.492 72.0775 106.091 71.8604 105.617 71.6007C105.163 71.3516 104.625 71.0533 104.057 70.7774C102.902 70.2155 101.511 69.6892 99.8122 69.5684C97.0213 69.3703 93.5316 69.9752 90.445 70.4639L87.5017 70.9307L87.5544 67.9503C87.6078 64.9835 87.4903 62.2257 87.1657 60.1817L87.0984 59.7823C86.6484 57.2966 86.7709 55.0427 86.8757 53.6309L85.4138 52.169C84.9682 52.0464 84.4897 52.02 83.9997 52.1417L82.6257 52.4825L82.0378 51.8917C81.9215 51.8841 81.7972 51.8791 81.6648 51.8692ZM90.6775 124.624C90.9461 124.547 91.217 124.474 91.4861 124.401C93.6392 123.825 95.9136 123.85 98.6159 123.93C99.2968 123.95 100.025 123.969 100.783 123.982L102.05 124.005L102.781 125.04C104.002 126.768 105.135 128.583 106.018 130.973C106.054 131.07 106.091 131.165 106.128 131.259L107.568 134.949L103.617 134.661C102.71 134.595 101.765 134.485 100.764 134.35C98.5195 134.047 95.9807 133.627 93.1677 133.549L92.6013 133.538C90.7967 133.518 89.1176 132.754 87.1179 131.637L85.5183 130.743L85.8523 129.124L83.4489 128.109L85.6306 125.515C85.9375 125.15 86.4697 124.678 87.5105 124.179C87.6195 124.126 87.7402 124.073 87.7829 124.054L89.7614 123.171L90.6775 124.624ZM97.8571 128.911C98.4348 128.981 98.9878 129.054 99.5114 129.126C99.4736 129.067 99.4347 129.009 99.3962 128.95C99.0771 128.942 98.7675 128.937 98.4695 128.928C98.2585 128.922 98.0544 128.916 97.8571 128.911ZM173.768 84.0001C175.837 83.0055 177.777 83.3047 178.904 83.6837C179.43 83.8608 179.872 84.0809 180.223 84.2901L180.546 84.4942L180.574 84.5128L180.602 84.5333L180.822 84.6895L180.873 84.7266L180.881 84.7325L180.898 84.7452L180.925 84.7657L180.936 84.7755L180.947 84.7843L181.009 84.8341L181.025 84.8458L181.046 84.8624L181.051 84.8673L181.376 85.1319L181.399 85.1495L181.444 85.1866C185.698 88.6944 187.853 91.886 189.296 94.4991C189.68 95.196 189.946 95.7124 190.151 96.1075C190.357 96.5045 190.484 96.7438 190.64 97.003C190.646 97.0118 190.651 97.0203 190.656 97.0284C193.007 98.6366 196.228 100.783 199.134 102.904L200.404 103.846L200.414 103.854L201.054 104.342L201.188 104.443L201.199 104.454L201.364 104.582L201.38 104.594L201.394 104.606L201.485 104.676L201.501 104.688L201.516 104.7L201.565 104.739L201.63 104.791L201.691 104.847L201.737 104.889L201.741 104.893L201.825 104.97L201.832 104.976L203.367 106.397L203.375 106.403C203.858 106.855 204.314 107.287 204.724 107.689C205.308 108.26 205.972 108.939 206.563 109.668C206.57 109.673 206.577 109.679 206.585 109.685L207.142 110.085L207.162 110.099L207.182 110.113L207.36 110.244L207.391 110.268L207.422 110.291C210.159 112.44 210.823 116.325 208.959 119.261L208.77 119.542C206.608 122.602 202.374 123.331 199.313 121.17C198.847 120.841 197.573 119.978 196.561 118.876L196.436 118.74L196.413 118.715L196.242 118.524L196.154 118.399L196.095 118.316L196.016 118.202C196.005 118.189 195.97 118.146 195.898 118.067C195.772 117.929 195.561 117.707 195.231 117.385C194.639 116.805 193.873 116.097 192.847 115.151C192.671 115.015 192.492 114.878 192.31 114.74C192.376 116.875 192.184 119.061 191.564 121.153C191.353 121.868 190.82 123.544 189.475 125.066C187.845 126.91 185.473 128.03 182.748 127.974C181.925 127.957 181.053 127.967 180.1 127.982C179.194 127.997 178.15 128.019 177.182 128.011C176.223 128.003 175.112 127.965 174.031 127.824C173.061 127.698 171.462 127.413 169.918 126.535L168.653 125.816V125.7C167.378 124.755 166.148 123.559 165.176 122.567C163.695 121.058 162.065 119.235 160.478 117.383C157.309 113.681 154.072 109.571 152.186 106.981C149.982 103.951 150.65 99.706 153.679 97.5011C156.709 95.2966 160.954 95.9652 163.159 98.9942C164.808 101.26 167.818 105.091 170.787 108.558C172.27 110.289 173.681 111.859 174.864 113.066C175.481 113.694 175.946 114.127 176.262 114.408C176.524 114.424 176.863 114.436 177.296 114.44C177.734 114.443 178.196 114.439 178.703 114.432C178.598 113.169 178.318 111.643 177.823 109.908C176.874 106.585 175.426 103.45 174.373 101.662C172.868 99.1071 171.728 96.6632 171.008 94.8272C170.708 94.0644 170.419 93.2494 170.217 92.4971L170.136 92.1788C170.09 91.9833 169.803 90.8747 169.919 89.5821C169.954 89.1833 170.056 88.3871 170.448 87.4708C170.839 86.5558 171.777 84.9577 173.768 84.0001ZM21.4529 109.865C21.6638 109.944 21.8714 110.021 22.0759 110.096L24.2234 110.88L23.6345 113.089C23.4925 113.621 23.3837 114.177 23.3122 114.768C23.1252 116.315 23.1958 118.061 23.4001 120.205L23.698 123.331L20.5847 122.921C20.1785 122.867 19.7543 122.813 19.3474 122.758C16.5027 122.375 13.9556 121.987 11.4138 121.392L10.0271 121.066L9.59933 119.708C9.38563 119.029 9.24293 118.141 9.10129 117.011L9.06906 116.758L9.08957 116.504C9.16419 115.557 9.73714 114.618 10.7439 113.639C11.9835 112.434 13.6412 111.434 14.989 110.726L15.238 110.607C15.8669 110.334 16.813 110.095 17.9323 109.93L18.6071 109.843C19.2786 109.767 19.9319 109.724 20.5056 109.708L20.9948 109.694L21.4529 109.865ZM177.308 88.422C176.991 88.3155 176.477 88.2458 175.935 88.5059C175.411 88.7581 175.156 89.1794 175.046 89.4376C174.939 89.686 174.91 89.9071 174.899 90.0294C174.863 90.4377 174.959 90.8461 175 91.0167L175.111 91.4298C175.242 91.8747 175.43 92.4113 175.662 93.0011C176.288 94.5971 177.314 96.8027 178.681 99.1251C179.945 101.27 181.564 104.795 182.632 108.535C183.546 111.74 183.96 114.788 183.652 117.213L183.377 119.382L181.191 119.399C180.768 119.402 180.356 119.407 179.961 119.413C179.457 119.421 178.968 119.429 178.499 119.435L178.283 121.027L175.982 120.903C175.628 120.884 175.278 120.857 174.947 120.814C174.443 120.748 174.116 120.664 173.91 120.599L170.86 119.642L172.192 117.455C171.92 117.194 171.619 116.9 171.294 116.567C170 115.249 168.509 113.585 166.989 111.81C163.947 108.257 160.852 104.323 159.116 101.938C158.536 101.141 157.419 100.963 156.622 101.543C155.825 102.123 155.649 103.24 156.228 104.037C158.027 106.508 161.181 110.515 164.277 114.131C165.826 115.939 167.375 117.668 168.746 119.066C170.063 120.409 171.366 121.606 172.389 122.189L172.418 122.205C173.115 122.594 173.939 122.771 174.678 122.867C175.462 122.969 176.338 123.002 177.223 123.01C178.112 123.017 179.072 122.998 180.018 122.982C180.975 122.967 181.927 122.956 182.851 122.976C184.081 123.001 185.054 122.519 185.729 121.755C186.331 121.074 186.613 120.261 186.769 119.733C187.639 116.798 187.397 113.294 186.656 109.906L185.303 103.722L190.516 107.314C192.397 108.609 194.312 109.959 195.993 111.263L196.077 111.328L196.155 111.4C197.202 112.366 198.056 113.153 198.729 113.813C199.437 114.505 199.857 114.974 200.08 115.29L200.161 115.404L200.239 115.489L200.243 115.493C200.824 116.126 201.623 116.68 202.198 117.086C203.003 117.654 204.117 117.462 204.686 116.657L204.781 116.508C205.212 115.749 205.03 114.781 204.345 114.234L204.217 114.141C203.725 113.793 203.398 113.552 203.181 113.369L202.976 113.196L202.813 112.984C202.39 112.437 201.835 111.857 201.226 111.261C200.858 110.9 200.437 110.502 199.97 110.066L198.435 108.646L198.381 108.595L198.364 108.582L198.36 108.579L198.345 108.568L198.331 108.557L198.012 108.311L197.886 108.214L197.392 107.838L196.17 106.931C193.261 104.807 190.019 102.658 187.552 100.965C187.543 100.959 187.502 100.93 187.46 100.899C187.402 100.856 187.342 100.807 187.28 100.753C187.157 100.646 187.045 100.531 186.943 100.413C186.746 100.185 186.557 99.913 186.361 99.5889C186.114 99.1794 185.922 98.8152 185.712 98.4102C185.501 98.0042 185.267 97.5453 184.919 96.9151C183.718 94.7416 181.941 92.0773 178.262 89.044L177.899 88.7481L177.879 88.7325L177.872 88.7266L177.75 88.6397C177.636 88.5644 177.487 88.4823 177.308 88.422ZM27.7077 122.15C27.708 122.152 27.7086 122.155 27.7087 122.155C27.7086 122.154 27.7083 122.151 27.7077 122.148C27.7075 122.146 27.707 122.144 27.7068 122.143C27.7072 122.146 27.7074 122.149 27.7077 122.15ZM18.2712 114.94C17.95 114.997 17.6978 115.056 17.5134 115.106C17.388 115.139 17.3023 115.166 17.2546 115.183C16.228 115.726 15.2468 116.34 14.5407 116.942C15.7085 117.167 16.9174 117.362 18.2165 117.55C18.1923 116.668 18.2033 115.797 18.2712 114.94ZM36.5857 104.538C36.9904 104.724 37.4194 104.918 37.8689 105.114L36.8474 108.001L37.3884 108.493C37.3259 108.562 37.3222 108.569 37.2263 108.675L36.7585 108.253L36.2068 109.816C35.6359 109.659 35.1533 109.53 34.7263 109.416L30.7741 108.362L33.5134 105.325C33.5326 105.304 33.6411 105.183 33.6931 105.126L34.9245 103.774L36.5857 104.538ZM231.148 49.3956C234.532 47.785 238.58 49.2221 240.19 52.6055C241.379 55.1021 243.964 58.9938 247.488 63.6173C247.949 62.1426 248.516 60.7518 249.237 59.5069C250.888 56.6555 253.369 55.1114 255.283 54.2921C256.859 53.6175 258.357 53.2954 259.44 53.1388L259.473 53.1348L259.853 53.085L259.891 53.0802L259.929 53.0763L259.939 53.0753L259.992 53.0694L260.063 53.0616L260.079 53.0597L260.088 53.0587L260.101 53.0567L261.082 52.9532L262.491 52.8048L264.507 54.1134L264.831 54.3292L264.843 54.338L264.856 54.3458C268.303 56.7013 270.656 60.0918 271.634 62.8751L271.698 62.9386L271.789 63.3233L271.824 63.4268V63.4679L271.862 63.628C272.337 65.627 272.41 67.9168 271.443 70.8751L271.236 71.4757C269.955 74.9968 266.062 76.8131 262.541 75.5333C261.208 75.0487 260.12 74.1894 259.351 73.1182C259.08 75.1183 258.841 77.506 258.635 80.336C258.621 80.5308 258.562 81.7449 258.057 82.9766C257.837 83.5138 256.867 85.7623 254.174 86.8126C251.508 87.8516 249.295 86.9463 248.287 86.3829L247.93 86.169C247.095 85.6288 246.56 85.0231 246.394 84.8341C246.168 84.5767 245.989 84.3364 245.91 84.2305C245.79 84.0708 245.721 83.9753 245.666 83.8995C245.625 83.8438 245.597 83.8055 245.534 83.7227C245.041 83.0779 244.578 82.4255 244.148 81.8009C244.505 83.1221 244.468 84.5631 243.952 85.9425C242.638 89.4511 238.727 91.2314 235.217 89.9171C233.687 89.3438 232.414 88.7284 231.174 87.7345C230.342 88.2404 229.33 88.8184 228.31 89.4053C227.21 90.0388 225.964 90.7624 224.549 91.628C223.415 92.3963 222.405 93.0754 221.539 93.6544C221.665 93.9144 221.786 94.1621 221.9 94.3966C222.364 95.3499 222.705 96.0509 222.951 96.5548C223.022 96.6786 223.103 96.8247 223.181 96.9893C223.228 97.0883 223.278 97.193 223.326 97.293H223.603L224.058 99.2178C224.068 99.2576 224.087 99.3443 224.106 99.4425C224.133 99.5798 224.16 99.7436 224.181 99.9268C224.224 100.294 224.256 100.815 224.194 101.42L224.193 101.424L224.188 101.471L224.177 101.577L224.157 101.682L224.148 101.728L224.146 101.727C224.018 102.438 223.726 103.13 223.532 103.54C223.304 104.021 222.929 104.72 222.403 105.343L222.402 105.344L222.046 105.766L221.588 106.075C220.586 106.752 219.435 107.071 218.664 107.222C217.952 107.361 216.778 107.511 215.657 107.261L215.529 107.233L215.305 107.185L214.975 107.045C214.342 106.779 213.569 106.318 213.111 105.949L213.097 105.938L213.065 105.911L213.018 105.873L212.972 105.832L212.942 105.805C212.77 105.65 212.554 105.433 212.405 105.271L212.364 105.228L212.338 105.197C212.095 104.92 211.929 104.683 211.876 104.606C211.745 104.417 211.65 104.261 211.61 104.193C211.536 104.068 211.479 103.965 211.468 103.944C211.466 103.94 211.464 103.935 211.461 103.93C211.458 103.925 211.454 103.918 211.451 103.911C211.445 103.9 211.432 103.876 211.419 103.851L211.418 103.849C211.397 103.809 211.379 103.772 211.369 103.752C211.363 103.741 211.358 103.732 211.355 103.726L211.354 103.724C211.354 103.724 211.359 103.733 211.364 103.743C211.23 103.479 210.764 102.528 209.697 100.335C207.517 95.8562 202.849 86.2418 200.457 81.3136C198.073 76.4033 197.943 76.1297 197.815 75.8614C196.205 72.4779 197.642 68.43 201.025 66.8194C201.622 66.5355 202.24 66.3456 202.864 66.2452C204.565 63.9721 207.586 62.9288 210.429 63.8702C217.172 66.1027 225.812 69.5278 232.512 72.5938L232.521 72.5977L233.608 73.0997L233.621 73.1036L233.844 73.2091L234.416 73.4796L234.421 73.4815L234.524 73.5303L234.553 73.544L234.58 73.5567L234.638 73.586L234.673 73.6036C236.854 74.7165 238.335 75.8718 239.58 77.0499C239.67 77.0878 239.799 77.1419 239.978 77.2091L240.302 77.3399C240.749 77.5336 241.164 77.7717 241.547 78.045C241.192 77.5658 240.811 77.0657 240.383 76.5362C235.068 69.9722 230.239 63.2702 227.938 58.4376C226.328 55.054 227.765 51.0062 231.148 49.3956ZM236.77 81.2188C236.756 81.2098 236.741 81.2011 236.725 81.1905L236.545 81.0665L236.387 80.9141C235.374 79.9236 234.233 78.9928 232.392 78.0548L232.38 78.0489L232.355 78.0362L232.347 78.0323L231.795 77.7706L231.722 77.7374L230.424 77.1368C223.877 74.1416 215.411 70.7861 208.857 68.6163C207.963 68.3206 207 68.7721 206.647 69.629L205.944 71.3389L205.937 71.338L210.719 73.0294C214.671 74.4265 219.054 76.1326 223.155 77.8546L227.794 79.8018L223.44 82.3223C222.42 82.9128 221.256 83.5949 219.955 84.3927L219.945 84.3995L219.934 84.4053L219.932 84.4063L219.926 84.4102L219.896 84.4307L219.885 84.4376C218.269 85.5333 216.949 86.4204 215.935 87.0899L213.554 88.6622L212.308 86.0958C210.758 82.9048 209.235 79.7707 208.167 77.5704C207.991 77.2084 207.783 76.7789 207.637 76.4786L205.104 71.2598L204.102 71.1671C203.796 71.1386 203.478 71.1883 203.174 71.3331C202.283 71.7569 201.905 72.8229 202.329 73.713C202.446 73.9589 202.565 74.2073 204.955 79.13C207.347 84.0589 212.015 93.6716 214.193 98.1475C215.276 100.372 215.718 101.273 215.827 101.488L215.829 101.491C215.832 101.498 215.834 101.503 215.836 101.506C215.837 101.509 215.839 101.511 215.84 101.513C215.841 101.516 215.842 101.519 215.842 101.521C215.843 101.522 215.845 101.525 215.845 101.526L215.848 101.531C215.851 101.535 215.852 101.54 215.856 101.547C215.86 101.553 215.864 101.561 215.869 101.569C215.876 101.582 215.879 101.588 215.885 101.6C215.892 101.612 215.9 101.625 215.908 101.639C215.91 101.642 215.917 101.653 215.927 101.67C215.941 101.692 215.959 101.719 215.979 101.748C216.002 101.78 216.038 101.832 216.091 101.893L216.114 101.918C216.131 101.936 216.154 101.959 216.177 101.982C216.212 102.017 216.244 102.046 216.266 102.067C216.278 102.076 216.295 102.089 216.318 102.105C216.373 102.141 216.443 102.184 216.521 102.231C216.636 102.298 216.741 102.352 216.82 102.391C216.827 102.391 216.834 102.393 216.842 102.394C216.904 102.398 216.984 102.398 217.081 102.394C217.278 102.385 217.496 102.356 217.703 102.316C217.916 102.274 218.141 102.215 218.347 102.141C218.484 102.092 218.59 102.04 218.673 101.996C218.709 101.944 218.752 101.883 218.795 101.812C218.875 101.678 218.949 101.536 219.012 101.401C219.072 101.275 219.128 101.142 219.172 101.023C219.2 100.945 219.213 100.894 219.22 100.867C219.231 100.733 219.226 100.608 219.215 100.509C219.21 100.468 219.205 100.435 219.201 100.413L219.184 100.339C219.168 100.265 219.152 100.211 219.145 100.19C219.14 100.172 219.135 100.159 219.133 100.15C219.132 100.148 219.131 100.146 219.131 100.145V100.143C219.13 100.141 219.129 100.139 219.128 100.136L219.124 100.124C219.118 100.107 219.112 100.092 219.107 100.079L219.098 100.059C219.097 100.056 219.096 100.053 219.094 100.05C219.092 100.044 219.089 100.038 219.087 100.031L219.086 100.027C219.08 100.015 219.076 100.007 219.073 99.9991L219.07 99.9913C219.061 99.9703 219.046 99.9378 219.027 99.8975C219.009 99.8588 218.991 99.8204 218.977 99.7911C218.901 99.6303 218.786 99.3883 218.668 99.1397L218.59 98.9991L218.538 98.9112L218.493 98.8194C218.243 98.3072 217.889 97.581 217.404 96.5841C217.03 95.8165 216.58 94.886 216.086 93.8692L215.117 91.877L216.978 90.6759C217.205 90.5294 217.438 90.3779 217.67 90.2257C218.719 89.5357 220.105 88.6001 221.801 87.4512L221.848 87.419L221.897 87.3887C223.387 86.477 224.692 85.7195 225.814 85.0733C226.713 84.5556 227.521 84.0937 228.206 83.6856L228.796 83.3292L228.862 83.2764L228.874 83.2667C229.088 83.0983 229.291 82.9159 229.486 82.7188L231.046 81.1407L232.799 82.5011C233.018 82.6717 233.219 82.8438 233.409 83.0137H238.854L235.933 84.8087C236.239 84.9473 236.58 85.089 236.971 85.2354C237.894 85.5808 238.924 85.1121 239.27 84.1886C239.594 83.3233 239.202 82.3653 238.391 81.9639L238.224 81.8907C237.649 81.6752 237.284 81.5114 237.026 81.3721L237.025 81.3712C237.003 81.3591 236.982 81.3443 236.961 81.3321C236.964 81.3337 236.965 81.3351 236.964 81.3341C236.963 81.3337 236.958 81.3309 236.951 81.3272C236.886 81.2903 236.823 81.2548 236.764 81.2159L236.77 81.2188ZM219.18 100.228C219.179 100.225 219.178 100.221 219.176 100.217C219.172 100.211 219.167 100.202 219.162 100.191C219.159 100.186 219.156 100.179 219.152 100.171C219.148 100.163 219.143 100.155 219.137 100.144C219.139 100.147 219.141 100.15 219.142 100.153C219.156 100.181 219.168 100.205 219.177 100.222C219.179 100.224 219.179 100.226 219.18 100.228ZM219.109 100.083C219.109 100.083 219.109 100.082 219.108 100.08L219.107 100.079C219.108 100.082 219.109 100.082 219.109 100.083ZM48.7693 63.1397L49.4421 64.546C49.4997 64.6664 49.5769 64.8323 49.6638 65.043C53.2881 73.8343 49.4869 81.1306 47.3523 86.0606C46.8142 87.3032 45.8308 88.5543 44.3718 89.9737C42.9063 91.3994 41.1152 92.854 39.0339 94.5909C38.0882 95.3802 37.1006 96.2124 36.0866 97.1065L34.3083 98.6749L32.6482 96.9825C30.7325 95.0294 28.9756 92.5106 27.4011 89.6895C24.8593 85.1351 22.995 80.1674 21.7839 76.5372C21.058 74.3613 20.4199 72.5232 20.4655 70.5997L20.4929 69.4366L21.4011 68.7081C21.6916 68.4753 22.0866 68.2111 22.6286 67.922C24.2481 67.0583 26.5637 66.3173 29.3073 65.6895C34.7783 64.4377 41.3685 63.7544 46.1999 63.1856C46.6011 63.1384 46.9341 63.1214 47.2107 63.1241L48.7693 63.1397ZM45.5251 68.297C40.7844 68.8469 35.1368 69.4859 30.4226 70.5645C28.2993 71.0504 26.7062 71.5572 25.6296 72.0264C25.7884 72.6976 26.0704 73.5893 26.5261 74.9552C27.6956 78.4609 29.4449 83.0923 31.7663 87.252C32.7147 88.9513 33.695 90.4506 34.6843 91.7159C35.0762 91.3844 35.4589 91.0633 35.8308 90.753C38.0122 88.9325 39.5958 87.6443 40.8855 86.3897C42.1568 85.1528 42.6057 84.4406 42.7644 84.0743C44.9291 79.0749 47.3558 74.1937 45.5251 68.297ZM235.676 54.754C235.253 53.8639 234.187 53.4855 233.297 53.9093C232.406 54.3331 232.028 55.3991 232.452 56.2891C234.476 60.5408 238.971 66.845 244.269 73.3897C245.456 74.8552 246.328 76.1036 247.118 77.2677C247.897 78.4166 248.641 79.5538 249.507 80.6856C249.606 80.8162 249.662 80.8931 249.715 80.9659C249.763 81.0328 249.815 81.1049 249.912 81.2345C249.981 81.3271 250.063 81.4337 250.152 81.5352C250.223 81.6164 250.396 81.8082 250.645 81.9698L250.758 82.0372C251.063 82.2055 251.656 82.4275 252.357 82.1544C253.079 81.873 253.353 81.2693 253.43 81.0802C253.505 80.899 253.56 80.6792 253.596 80.4581C253.631 80.2446 253.641 80.0873 253.649 79.9727C253.962 75.6746 254.353 72.2276 254.861 69.5264C255.373 66.8011 255.981 64.9633 256.655 63.7999L256.656 63.7979C257.08 63.0674 257.791 62.5411 258.655 62.171L258.656 62.17C258.718 62.1433 258.778 62.1203 258.802 62.1104L260.348 61.4923L261.514 62.6807C262.329 63.5111 262.925 64.3939 263.278 65.0919L263.414 65.379L263.582 65.7589L263.618 66.1729C263.63 66.3168 263.636 66.4743 263.626 66.6524C263.602 67.0822 263.494 67.6854 263.181 68.546C262.845 69.472 263.323 70.4969 264.25 70.8341C265.176 71.1706 266.2 70.6926 266.537 69.7667L266.684 69.3419C267.368 67.2642 267.263 65.9048 266.997 64.7833L266.977 64.7012L266.956 64.6387L266.928 64.5577C266.313 62.7862 264.623 60.2423 262.036 58.4747L261.784 58.3067L261.255 57.963L260.627 58.0294L260.626 58.0284L260.481 58.046L260.409 58.0538L260.156 58.087C259.367 58.2012 258.316 58.4318 257.251 58.8878C255.947 59.4458 254.499 60.3977 253.564 62.0118C252.589 63.6964 251.891 66.0021 251.352 68.8673C251.302 69.1343 251.253 69.408 251.205 69.6876L250.269 75.1417L246.795 70.8341C241.626 64.4262 237.475 58.5326 235.676 54.754ZM236.904 81.3018L236.906 81.3028C236.924 81.3127 236.938 81.3205 236.947 81.3253L236.961 81.3321C236.96 81.3315 236.958 81.3318 236.957 81.3311C236.951 81.3281 236.939 81.3216 236.925 81.3136C236.919 81.3103 236.912 81.3063 236.904 81.3018ZM215.551 81.3302C215.896 81.0983 216.259 80.854 216.64 80.5958C216.045 80.36 215.449 80.1282 214.856 79.8985C215.083 80.3661 215.316 80.8445 215.551 81.3302ZM162.461 42.796C164.321 44.5179 167.614 47.0814 171.056 49.4952C174.41 51.8466 177.34 53.6539 178.855 54.3722C179.022 54.4293 179.164 54.4731 179.282 54.5069C182.292 53.511 185.682 54.7378 187.307 57.5997C189.158 60.8583 188.016 65.0003 184.758 66.8507C180.526 69.2532 176.018 67.7848 173.997 67.0509L173.986 67.047L173.885 67.0118L173.755 66.9659L173.729 66.9532L172.35 66.4532V66.3507L172.076 66.2325V66.1505C171.084 65.6322 169.998 65.0023 168.872 64.3096C168.453 68.1214 166.832 72.1547 162.671 75.1075C160.737 76.4793 157.679 78.4344 154.03 78.544C153.752 78.5524 152.075 78.6643 150.825 78.6036C149.545 78.5414 146.84 78.2872 144.495 76.3692C142.804 74.9858 141.541 72.9116 140.75 71.3975C139.836 69.6494 138.974 67.5156 138.442 65.297C137.943 63.2111 137.558 60.3275 138.343 57.4581C139.264 54.0962 141.76 51.0829 145.896 50.0304C147.619 49.592 149.539 49.5333 151.212 49.6124L151.193 49.5733L150.303 47.7061L160.038 40.5518L162.461 42.796ZM156.592 49.2911C156.933 50.019 157.298 50.8061 157.657 51.6339L159.545 55.9854L154.887 55.0831C154.051 54.9211 153.186 54.7938 152.353 54.71C150.56 54.5295 148.585 54.5055 147.129 54.8761C144.937 55.434 143.668 56.943 143.166 58.7784C142.7 60.4781 142.892 62.4064 143.305 64.1329C143.727 65.8935 144.429 67.6408 145.181 69.0811C145.9 70.4567 146.782 71.7795 147.66 72.4981C148.721 73.3665 150.064 73.5607 151.067 73.6095C152.059 73.6576 153.245 73.5651 153.88 73.546C155.923 73.4846 157.919 72.3481 159.778 71.0294C163.654 68.2787 164.337 64.0277 163.862 59.9835L163.224 54.5509L167.75 57.6241C170.786 59.6861 173.693 61.4645 175.589 62.3048L175.613 62.3155L175.642 62.3282L175.676 62.3399L176.219 62.5304C178.123 63.1673 180.376 63.589 182.289 62.503C183.146 62.0161 183.446 60.9255 182.96 60.0684C182.492 59.2456 181.467 58.9358 180.629 59.3448L180.048 59.628L179.403 59.5948C179.416 59.5955 179.426 59.5958 179.426 59.5958C179.424 59.5957 179.424 59.595 179.42 59.5948C179.416 59.5947 179.409 59.5951 179.403 59.5948C179.378 59.5938 179.328 59.5913 179.264 59.586C178.663 59.5353 177.939 59.3525 177.086 59.0518L176.976 59.0138L176.872 58.9659C174.949 58.081 171.642 56.0131 168.185 53.5889C164.988 51.3472 161.809 48.9047 159.679 47.0196L156.592 49.2911ZM254.918 1.94441C257.502 -0.531538 260.603 0.0210004 261.161 0.125079C262.733 0.418326 264.065 1.22939 264.29 1.35848L264.476 1.46492C264.749 1.62453 265.256 1.93852 265.782 2.37313C266.525 2.98778 267.145 3.69396 267.682 4.47469C268.651 5.88168 269.463 7.70336 270.298 9.98836C270.386 10.2308 270.473 10.4725 270.56 10.712C271.753 11.8831 273.161 13.217 274.814 14.7569C276.722 16.5335 279.334 18.7149 282.119 20.9903C283.97 19.3891 285.699 18.0059 287.163 16.9337C288.119 16.1876 288.742 15.6575 289.684 14.9044C290.074 14.5933 290.555 14.2145 291.031 13.8848C291.266 13.7223 292.397 12.9054 293.876 12.5333C297.397 11.6472 300.967 13.6902 302.018 17.1221L302.112 17.4581C302.903 20.605 301.357 23.7778 298.579 25.1729C298.477 25.25 298.339 25.3581 298.155 25.505C297.614 25.9371 296.436 26.9134 295.455 27.6778L295.389 27.7335L295.324 27.7784L295.062 27.9708C294.379 28.4749 293.597 29.0837 292.744 29.7823C294.302 31.1674 295.572 32.399 296.442 33.5333C297.01 34.2733 297.798 35.4606 298.171 37.044L298.245 37.3927C298.572 39.1222 298.261 40.6129 297.844 41.6973C297.297 43.1215 296.442 44.1944 295.676 44.9571L295.696 44.963C302.482 46.8448 306.716 52.1775 309.141 55.1466C309.323 55.3138 309.396 55.3507 309.429 55.3673L309.509 55.4024C309.627 55.4473 309.87 55.5197 310.334 55.587C314.042 56.1253 316.611 59.5671 316.074 63.2745C315.536 66.9825 312.094 69.5542 308.385 69.0167C305.48 68.5953 303.227 67.6609 301.283 66.2305C300.438 68.4873 298.876 70.7001 296.142 72.418C294.117 73.6907 292.036 73.6416 290.675 73.3302C289.437 73.0468 288.522 72.505 288.051 72.1983C287.124 71.5934 286.34 70.833 285.967 70.4698C282.668 67.2624 278.021 63.2407 275.404 60.9014C272.611 58.4047 272.369 54.1147 274.866 51.3204C277.363 48.5272 281.653 48.2869 284.447 50.7833L286.913 52.9698C286.91 52.9321 286.906 52.8944 286.904 52.8565L286.902 52.8136L286.888 52.5245L286.886 52.4737C286.867 51.7455 286.914 50.3316 287.601 48.836C286.097 49.0614 284.61 49.1041 283.28 49.0675C280.492 48.9905 277.475 48.5383 274.547 47.8516C273.25 47.5476 271.697 46.9291 270.347 45.6612C268.919 44.3197 268.149 42.6554 267.875 41.043C267.831 40.784 267.802 40.5281 267.783 40.2784C267.354 40.2018 266.949 40.1117 266.581 40.0177C265.238 39.6746 263.753 39.1376 262.167 38.4044C258.984 36.9331 255.155 34.5639 250.881 30.9796C244.54 25.6622 239.508 21.2832 236.051 18.1915C237.025 21.5038 235.344 25.0318 232.154 26.3604L231.828 26.4864C228.865 27.5472 227.414 27.8579 225.367 28.4024C224.475 28.6397 223.408 28.939 222.159 29.3175C222.355 29.6748 222.541 30.0177 222.719 30.3409C223.996 32.6501 225.003 34.4001 225.369 35.0733C225.486 35.2889 225.635 35.5684 225.771 35.8585C225.851 36.0279 226.202 36.7544 226.384 37.6925L226.423 37.9024C226.508 38.4224 226.598 39.3511 226.362 40.462L226.301 40.7218C225.865 42.4398 224.724 44.0889 222.91 45.0626C222.098 45.4981 221.323 45.6998 220.702 45.795L220.603 45.8946L219.545 45.878C218.941 45.8684 218.467 45.7792 218.292 45.7452C215.63 45.2291 213.645 43.2262 213.012 40.7774C212.572 39.9976 211.864 38.7505 210.844 36.9054C210.382 36.0694 209.861 35.1194 209.301 34.0938C204.217 36.1639 200.941 37.5822 199.722 38.1622C196.339 39.7727 192.291 38.3353 190.68 34.9522C189.07 31.5687 190.507 27.5209 193.89 25.9102C195.309 25.235 198.382 23.903 202.816 22.0841C201.826 20.2412 200.925 18.5671 200.217 17.2452C197.691 12.5309 197.506 12.1757 197.358 11.8643C195.748 8.48078 197.185 4.43298 200.568 2.82234C203.926 1.22373 207.938 2.62849 209.572 5.95809H209.574L209.596 6.00203L209.878 6.53426C210.207 7.15311 210.864 8.38117 212.18 10.838C213.078 12.5142 214.278 14.7482 215.578 17.1661C218.17 16.3102 220.272 15.7163 221.878 15.2891C224.22 14.6659 224.967 14.5298 227.254 13.711C228.493 13.2673 229.777 13.2065 230.975 13.4669C228.529 10.787 228.62 6.63231 231.226 4.06453L231.245 4.04695L231.264 4.0284L231.425 3.87703L231.451 3.85164L231.479 3.82723C234.162 1.43929 238.274 1.54923 240.822 4.13582C242.136 5.46985 248.701 11.4405 259.601 20.5821L259.719 20.6798C259.426 19.8505 259.121 18.9949 258.804 18.1153C258.353 17.6396 257.918 17.1718 257.51 16.7091C255.636 14.5796 253.507 11.7944 252.885 8.44051L252.878 8.39559L252.876 8.38387L252.862 8.30281L252.861 8.30086L252.852 8.2491L252.844 8.18563L252.843 8.17781C252.699 7.20676 252.469 4.29074 254.918 1.94441ZM79.8708 55.8448L80.445 55.8712L82.6189 56.0011L82.7888 58.172C82.8481 58.9281 82.943 59.7155 83.0866 60.5089L83.196 61.1983C83.4297 62.8958 83.5217 65.2032 83.4812 67.7364L83.406 72.3907L79.5671 69.7579C79.1872 69.4973 78.7472 69.1698 78.2712 68.7696C77.1269 67.8075 75.9503 66.5808 75.0564 65.2315C74.2123 63.9574 73.6832 62.671 73.573 61.4503L73.5573 61.2071C73.5039 60.0059 73.857 58.7039 75.0612 57.3399L75.2673 57.1055L75.5251 56.9298C75.5597 56.9061 75.5885 56.8876 75.6052 56.877C75.6222 56.8663 75.6368 56.858 75.6423 56.8546H75.6404L75.6374 56.8575C75.8275 56.7382 76.0493 56.6227 76.2946 56.5157L76.6872 56.3595C77.1038 56.2066 77.5922 56.0677 78.1433 55.962C78.7388 55.8478 79.3009 55.828 79.8708 55.8448ZM149.319 69.0333C149.318 69.0313 149.312 69.0243 149.305 69.0157C149.298 69.0061 149.287 68.9905 149.274 68.9718C148.982 68.5601 148.663 68.0356 148.345 67.4288C147.708 66.2093 147.12 64.7359 146.776 63.3009C146.504 62.1643 146.428 61.2347 146.478 60.5255L146.626 58.4542L148.688 58.2188C149.457 58.1309 150.603 58.1226 151.996 58.2628C153.643 58.4286 155.259 58.7608 156.313 59.1261L156.439 59.1651C156.734 59.2436 157.033 59.2416 157.319 59.171L160.252 58.4464L160.415 61.462C160.572 64.3671 159.755 66.669 157.713 68.1182C156.78 68.7796 156.021 69.2286 155.398 69.5186C155.088 69.6632 154.8 69.7739 154.533 69.8497C154.285 69.92 154.078 69.9545 153.904 69.9688L153.839 69.9747L153.773 69.9766C152.851 70.0043 152.05 70.0833 151.241 70.044C151.219 70.0429 151.198 70.0404 151.18 70.0391L149.989 69.9718L149.319 69.0333ZM292.59 50.2706L292.589 50.2716C291.963 50.9298 291.871 51.7661 291.884 52.3243L291.894 52.5343L291.913 52.7608C291.969 53.2932 292.099 53.8612 292.233 54.3868C292.569 55.6984 292.996 57.0067 293.303 58.5108C293.39 58.9375 293.458 59.3335 293.507 59.7013L294.416 66.5567L289.333 61.8682C286.296 59.0674 282.982 56.1805 281.115 54.5118C280.38 53.8549 279.25 53.9173 278.593 54.6514C277.937 55.3863 278.001 56.5158 278.736 57.1729C281.249 59.4187 286.054 63.5807 289.453 66.8858C289.83 67.2523 290.305 67.6977 290.782 68.0089C291.018 68.1631 291.367 68.3602 291.791 68.4571C292.228 68.5569 292.807 68.56 293.37 68.2511L293.482 68.1846C296.415 66.3408 297.169 63.6618 297.165 61.0675L297.154 54.2022L301.577 59.4532C301.582 59.4588 301.587 59.4659 301.603 59.4845L301.665 59.5557L301.671 59.5626L301.676 59.5694L302.775 60.8985L302.782 60.9063L302.837 60.9727L302.897 61.0343C304.531 62.6721 306.278 63.6587 309.102 64.0684C310.077 64.2098 310.983 63.5335 311.125 62.5577L311.142 62.3751C311.181 61.4712 310.53 60.6671 309.616 60.5343C308.782 60.4134 308.092 60.2371 307.484 59.9747L307.228 59.8575C306.578 59.5388 306.067 59.1327 305.583 58.6651L305.477 58.5636L305.384 58.4493C302.824 55.3207 299.493 51.2049 294.359 49.7813L293.326 49.4942L292.59 50.2706ZM151.986 63.293C152.196 63.8849 152.453 64.4768 152.727 65.0137C152.879 65.0062 153.058 65.0001 153.273 64.9923C153.278 64.9903 153.282 64.9885 153.287 64.9864C153.55 64.8639 154.041 64.592 154.819 64.0401C154.865 64.0077 154.907 63.9736 154.946 63.9376C154.937 63.9349 154.928 63.9325 154.919 63.9298L154.676 63.8507C154.165 63.6734 153.166 63.4415 151.986 63.293ZM162.268 19.3067C164.022 19.0943 165.763 19.4738 167.26 20.3468L167.578 20.5411L167.6 20.5557L167.624 20.5714L167.837 20.7149L167.881 20.7432L167.964 20.8048L168.049 20.8682L168.092 20.9005L168.113 20.9161L168.12 20.922C169.974 21.2354 171.636 22.1317 172.89 23.4825L173.173 23.8028L173.197 23.8311L173.22 23.8614L173.445 24.1466L173.474 24.1846L173.503 24.2227L173.51 24.2335L173.524 24.252L173.527 24.2569L173.611 24.3731L173.649 24.4249L173.683 24.4786L173.694 24.4952L173.736 24.5577L173.744 24.5684L173.752 24.5802L173.759 24.5899C174.246 25.3281 174.894 26.5402 175.116 28.1055L175.157 28.4669C175.201 28.9571 175.202 29.5091 175.134 30.0929C177.886 29.026 180.967 29.8808 182.797 32.088H182.957L183.448 33.0196C183.642 33.2087 184.018 33.5603 184.698 34.1397C186.813 35.9429 190.963 39.2006 193.579 41.0968C194.833 42.006 195.668 42.5519 196.508 43.1173C197.364 43.6942 198.263 44.3157 199.3 45.211C202.134 47.6607 202.447 51.9467 199.998 54.7823C197.547 57.6179 193.262 57.9287 190.427 55.4796C190.018 55.1261 189.658 54.8661 188.926 54.3731C188.177 53.8682 187.106 53.1642 185.616 52.0841C182.739 49.9988 178.304 46.5221 175.893 44.4669C174.69 43.4411 173.769 42.5843 173.071 41.7882C172.162 40.7508 171.733 39.9259 171.453 39.337C170.959 38.2996 170.752 37.2 170.8 36.127C168.559 37.454 165.122 38.8793 161.259 39.46C160.189 39.621 158.287 39.7845 156.329 38.9884L155.936 38.8165C154.779 38.2687 153.293 37.189 152.419 35.2764L152.418 35.2755C151.515 33.2991 151.665 31.2968 152.245 29.7725L152.344 29.5255V29.5235C152.317 28.0393 152.628 26.4487 153.43 24.9532C154.513 22.9356 156.406 21.2883 158.787 20.5919C159.653 20.0219 160.694 19.5648 161.892 19.3614L162.268 19.3067ZM91.9499 52.7179C91.9499 52.721 91.949 52.7243 91.9489 52.7276C91.9491 52.7209 91.9498 52.7147 91.9499 52.7091C91.95 52.7022 91.9499 52.6954 91.9499 52.6895V52.7179ZM179.014 35.3673C178.518 34.6879 177.597 34.4349 176.811 34.8087C175.921 35.2325 175.543 36.2984 175.967 37.1886C176.123 37.5166 176.32 37.9096 176.832 38.4932C177.287 39.0132 177.99 39.6838 179.137 40.6622C181.439 42.6241 185.768 46.0193 188.55 48.0352C189.954 49.0531 190.941 49.7023 191.719 50.2266C192.492 50.7469 193.054 51.1409 193.697 51.6964C194.443 52.3409 195.57 52.2582 196.215 51.5128C196.858 50.7671 196.776 49.6389 196.03 48.9942C195.223 48.2974 194.522 47.8078 193.715 47.2638C192.913 46.7237 191.987 46.1184 190.645 45.1456C187.933 43.1793 183.678 39.8401 181.454 37.9444C180.379 37.0279 179.835 36.4993 179.548 36.1778L179.324 35.9268L179.265 35.8087L179.014 35.3673ZM83.1667 51.8966C83.1692 51.8962 83.1722 51.896 83.1755 51.8956H83.1775C83.1789 51.8954 83.1814 51.895 83.1843 51.8946C83.1832 51.8948 83.1823 51.8955 83.1814 51.8956C83.184 51.8952 83.1866 51.894 83.1892 51.8936C83.1818 51.8947 83.1743 51.8955 83.1667 51.8966ZM83.2917 51.8751C83.2974 51.8737 83.303 51.8715 83.3083 51.8702L83.2419 51.6095L83.2038 51.503L83.2917 51.8751ZM83.3044 51.8741C83.3062 51.8738 83.3085 51.8744 83.3103 51.8741C83.3297 51.8703 83.3479 51.8661 83.365 51.8624C83.3463 51.8665 83.326 51.8699 83.3044 51.8741ZM83.3122 51.8692C83.3135 51.8689 83.3148 51.8686 83.3161 51.8682L83.2585 51.6524L83.2536 51.6388L83.3122 51.8692ZM83.3308 51.8643C83.3323 51.8639 83.334 51.8639 83.3357 51.8634L83.3161 51.8126L83.3308 51.8643ZM83.4402 51.8438C83.4276 51.847 83.4144 51.8512 83.4001 51.8546C83.4051 51.8534 83.4101 51.8528 83.4148 51.8516C83.4235 51.8495 83.4321 51.8459 83.4402 51.8438ZM260.245 5.04109C259.975 4.9908 259.095 4.86769 258.377 5.55574L258.376 5.55477C257.771 6.13418 257.729 6.85307 257.77 7.29402L257.792 7.46492L257.795 7.48641L257.801 7.52547L257.803 7.53524C258.162 9.45912 259.47 11.3687 261.262 13.4044C261.49 13.6624 261.731 13.9274 261.984 14.2003L262.783 15.044L263.153 15.4288L263.334 15.9307C264.78 19.943 266.027 23.5276 266.956 26.4259L268.929 32.586L263.326 29.3546C261.342 28.2104 259.006 26.6097 256.388 24.4141C245.499 15.2819 238.762 9.17092 237.259 7.64559C236.594 6.96992 235.52 6.93537 234.816 7.54988L234.736 7.62703L234.612 7.7618C234.035 8.45841 234.068 9.49133 234.716 10.1495C236.352 11.8108 243.212 18.0216 254.093 27.1475C258.079 30.4902 261.539 32.6053 264.264 33.8653C265.626 34.4947 266.821 34.9194 267.817 35.1739C268.699 35.3992 269.548 35.5223 270.259 35.4679L272.611 35.2872L272.163 32.1055C272.139 31.9357 272.116 31.7876 272.093 31.6632C271.977 31.0094 271.787 30.2023 271.532 29.2579L269.49 21.7013L275.534 26.6749C276.215 27.2356 276.9 27.7958 277.578 28.3477L279.668 30.0489L277.815 32.0059C277.37 32.4758 276.928 32.9535 276.489 33.4366L273.236 37.0186L272.884 38.5284C272.758 39.0717 272.709 39.6441 272.804 40.2052L272.854 40.4483C272.993 41.0127 273.285 41.5603 273.771 42.0167C274.305 42.5184 274.976 42.8176 275.687 42.9845C278.37 43.6134 281.044 44.0039 283.419 44.0694C285.742 44.1334 287.985 43.8942 289.667 43.088C290.38 42.7457 291.082 42.327 291.677 41.8399L291.91 41.6417C292.42 41.1852 292.907 40.608 293.178 39.9024C293.332 39.502 293.435 39.0095 293.351 38.4386L293.303 38.1886C293.161 37.5839 292.84 37.0515 292.475 36.5763C291.756 35.6387 290.454 34.3983 288.339 32.5694C288.012 32.287 287.661 31.9879 287.291 31.6768L285.062 29.8028L287.253 27.8839C289.159 26.2136 290.919 24.7995 292.336 23.7686L292.351 23.7569L292.377 23.7374L292.383 23.7325C293.358 22.9726 294.35 22.145 295.034 21.5987C295.367 21.3326 295.628 21.1321 295.83 20.9884L296.034 20.8429L296.262 20.7403C297.04 20.3929 297.476 19.5286 297.262 18.6788L297.21 18.504C296.901 17.6528 295.992 17.1575 295.096 17.3829C294.588 17.5109 294.117 17.8294 293.877 17.9962C293.553 18.2204 293.187 18.5057 292.805 18.8106C292.015 19.4423 291.185 20.1382 290.225 20.8868L290.194 20.9112L290.162 20.9346C288.435 22.1962 286.23 23.9881 283.854 26.1261L282.265 27.5557L280.606 26.2091C280.391 26.0342 280.169 25.8551 279.95 25.6768C276.813 23.1247 273.678 20.5307 271.406 18.4151C269.556 16.6921 267.974 15.1949 266.644 13.8761L266.246 13.4805L266.054 12.9532C265.904 12.5382 265.753 12.1219 265.6 11.7032C264.805 9.52476 264.167 8.18429 263.565 7.31063C263.252 6.85541 262.934 6.50737 262.594 6.22664C262.43 6.09033 262.269 5.979 262.13 5.8907L261.798 5.69246C261.657 5.61141 261.439 5.48273 261.141 5.34578C260.834 5.20428 260.519 5.09232 260.245 5.04109ZM205.009 8.02059C204.54 7.24681 203.551 6.9387 202.717 7.33602C201.826 7.75986 201.448 8.82587 201.872 9.7159C201.953 9.88603 202.047 10.0707 204.625 14.8839C205.635 16.7691 207.035 19.3773 208.535 22.1661L209.856 24.6221L207.271 25.668C201.445 28.0259 197.569 29.6954 196.039 30.4239C195.149 30.8477 194.77 31.9137 195.194 32.8038C195.618 33.6939 196.684 34.0721 197.574 33.6485C199.103 32.9205 203.232 31.1452 209.496 28.6212L211.563 27.7872L212.628 29.7462C213.592 31.5211 214.483 33.1548 215.219 34.4874C215.799 35.5362 216.273 36.3815 216.656 37.0616L217.549 38.6436L217.751 39.003L217.827 39.4093C217.958 40.1136 218.505 40.6939 219.243 40.837C219.306 40.8493 219.441 40.8719 219.607 40.8761L219.625 40.877C219.778 40.8794 220.146 40.87 220.545 40.6563C221.028 40.3971 221.337 39.9585 221.456 39.4913L221.485 39.3507C221.525 39.1222 221.516 38.9237 221.499 38.7843L221.476 38.6475C221.42 38.3564 221.302 38.1024 221.248 37.9874C221.173 37.8289 221.079 37.6494 220.976 37.46C220.588 36.7461 219.724 35.2541 218.344 32.7589C217.752 31.6867 217.06 30.4226 216.314 29.0518L214.889 26.4356L217.713 25.4864C220.374 24.5918 222.497 23.992 224.082 23.5704C226.232 22.9982 227.428 22.7512 230.142 21.7794L230.311 21.7091C231.128 21.3192 231.533 20.3662 231.222 19.4971C230.89 18.5695 229.868 18.0857 228.939 18.418C226.402 19.3263 225.393 19.5277 223.163 20.1212C221.249 20.6304 218.597 21.3859 215.204 22.5733L213.188 23.2784L212.176 21.3985C210.498 18.2803 208.899 15.3022 207.772 13.1993C206.458 10.7451 205.797 9.50877 205.464 8.88192C205.298 8.57026 205.211 8.40687 205.165 8.31844L205.164 8.31551L205.139 8.26863L205.117 8.22567L205.096 8.18172L205.009 8.02059ZM284.26 33.7979C284.885 34.3175 285.473 34.8113 286.003 35.2696C286.342 35.5629 286.657 35.8376 286.945 36.0929L291.339 39.9893L285.484 40.4552C284.926 40.4996 284.272 40.5218 283.517 40.5011C282.546 40.4742 281.506 40.3824 280.429 40.2374L275.736 39.6055L278.906 36.086C279.547 35.3744 280.201 34.6742 280.858 33.9893L282.47 32.3106L284.26 33.7979ZM163.006 24.2569L162.728 24.2911C162.208 24.3795 161.748 24.5988 161.356 24.8936L160.93 25.2149L160.41 25.3331C159.288 25.5898 158.357 26.3482 157.837 27.3184C157.422 28.0914 157.283 28.959 157.363 29.7891L157.437 30.5636L157.059 31.2432C157.035 31.2863 157.012 31.3338 156.988 31.3848L156.919 31.5499C156.738 32.026 156.703 32.6213 156.967 33.1983L157.071 33.3995C157.334 33.8438 157.72 34.1286 158.075 34.297L158.216 34.3585C158.927 34.6463 159.752 34.6295 160.515 34.5147C164.632 33.8958 168.039 32.1163 169.256 31.1563C170.002 30.5671 170.216 29.7586 170.19 29.087L170.165 28.8087C170.081 28.216 169.823 27.7048 169.585 27.3438L169.584 27.3419L169.535 27.2686L169.527 27.2579L169.524 27.254L169.482 27.1954L169.324 26.9952C168.745 26.3154 167.91 25.8748 166.906 25.8067L166.013 25.7462L165.362 25.1329C165.28 25.0556 165.222 25.0053 165.176 24.9669L165.071 24.8848L165.056 24.8741L165.05 24.8692L165.045 24.8663L165.002 24.8341L164.858 24.7364C164.291 24.373 163.649 24.2091 163.006 24.2569ZM183.863 33.8624C183.86 33.8529 183.856 33.8421 183.852 33.8311L183.809 33.7276C183.833 33.782 183.851 33.8283 183.863 33.8624ZM209.651 6.12117C209.655 6.13038 209.659 6.13808 209.661 6.14363C209.663 6.14918 209.665 6.15398 209.666 6.15633L209.667 6.15828C209.666 6.1572 209.665 6.15317 209.663 6.14852C209.662 6.14577 209.66 6.14218 209.658 6.13777C209.656 6.13314 209.653 6.12654 209.65 6.11922L209.651 6.12117ZM219.198 100.26L219.193 100.25C219.192 100.248 219.19 100.246 219.188 100.242C219.192 100.25 219.196 100.256 219.198 100.26ZM236.864 81.2784L236.862 81.2764C236.879 81.2862 236.892 81.2953 236.904 81.3018C236.893 81.2953 236.879 81.2873 236.864 81.2784ZM83.5359 51.8184L83.53 51.8194H83.532C83.5333 51.819 83.5346 51.8188 83.5359 51.8184ZM83.4929 51.8311C83.5008 51.829 83.5082 51.8263 83.5154 51.8243C83.5031 51.8278 83.4893 51.831 83.4743 51.835C83.4806 51.8334 83.4872 51.8327 83.4929 51.8311Z" fill="black"/>
</svg>
